<?xml version="1.0" encoding="UTF-8"?>
<svg id="Capa_1" data-name="Capa 1" xmlns="http://www.w3.org/2000/svg" xmlns:xlink="http://www.w3.org/1999/xlink" viewBox="0 0 557.09 390.86">
  <defs>
    <style>
      .cls-1 {
        fill: #714567;
      }

      .cls-2 {
        fill: url(#Degradado_sin_nombre_7-3);
      }

      .cls-3 {
        fill: #704467;
      }

      .cls-4 {
        fill: #7c7c7d;
      }

      .cls-5 {
        fill: url(#Degradado_sin_nombre_7-4);
      }

      .cls-6 {
        fill: url(#Degradado_sin_nombre_7);
      }

      .cls-7 {
        fill: #f29989;
      }

      .cls-8 {
        fill: url(#Degradado_sin_nombre_7-2);
      }
    </style>
    <linearGradient id="Degradado_sin_nombre_7" data-name="Degradado sin nombre 7" x1="7.62" y1="165.38" x2="548.19" y2="165.38" gradientUnits="userSpaceOnUse">
      <stop offset="0" stop-color="#f29989"/>
      <stop offset=".04" stop-color="#f29989"/>
      <stop offset=".78" stop-color="#7b5da3"/>
      <stop offset=".99" stop-color="#6f4262"/>
      <stop offset="1" stop-color="#6f4262"/>
    </linearGradient>
    <linearGradient id="Degradado_sin_nombre_7-2" data-name="Degradado sin nombre 7" x1="7.49" y1="243.88" x2="175.7" y2="243.88" xlink:href="#Degradado_sin_nombre_7"/>
    <linearGradient id="Degradado_sin_nombre_7-3" data-name="Degradado sin nombre 7" x1="-3005.1" y1="243.88" x2="-2839.21" y2="243.88" gradientTransform="translate(-2456.79) rotate(-180) scale(1 -1)" xlink:href="#Degradado_sin_nombre_7"/>
    <linearGradient id="Degradado_sin_nombre_7-4" data-name="Degradado sin nombre 7" x1="58.66" y1="91.47" x2="484.12" y2="91.47" xlink:href="#Degradado_sin_nombre_7"/>
  </defs>
  <path class="cls-6" d="M7.62,208.9v-67.45h40.82c17.6,0,31.7,11.32,31.7,24.89v17.48c0,13.57-14.1,25.08-31.8,25.08H7.62ZM63.69,166.34c0-6.14-8.84-10.84-15.2-10.84h-23.75v39.38h23.75c6.26,0,15.2-5.21,15.2-11.06v-17.48ZM191.59,155.41h-23.18c-.49-3.96-6.74-9.9-6.26-13.96h75.97c.49,4.06-5.75,10-6.24,13.96h-23.18v53.48c-4.79.4-12.13.4-17.12,0v-53.48ZM337.18,155.41h-23.18c-.49-3.96-6.74-9.9-6.26-13.96h75.97c.49,4.06-5.75,10-6.24,13.96h-23.18v53.48c-4.79.4-12.13.4-17.12,0v-53.48ZM461.84,183.8c0,14.36-9.46,26.28-37.36,26.28s-37.36-11.92-37.36-26.28v-17.46c0-14.26,9.36-26.18,37.36-26.18s37.36,11.92,37.36,26.18v17.46ZM445.38,166.34c0-7.53-11-12.36-20.9-12.36s-21,4.83-21,12.36v17.53c0,7.43,11.1,12.23,21,12.23s20.9-4.81,20.9-12.23v-17.53ZM429.21,137.39c-5.96.5-9.68.5-15.98,0l11.93-16.34c6.41-.5,12.83-.5,19.13,0l-15.08,16.34ZM492.65,163.68v45.22c-5.84.59-9.28.59-15.22,0v-67.45c6.47-.4,9.16-.4,15.53,0l38.8,43.58v-43.58c6.58-.4,10.29-.4,16.44,0v67.45c-6.9.4-9.09.4-15.98,0l-39.56-45.22ZM136.77,141.45c-5.09-.4-12.78-.4-17.87,0l-33.67,67.45c4.99.4,12.77.4,17.66,0l6.74-14.29h0l6.61-13.87h-.01l.54-1.11h0s0,0,0,0l10.66-21.87,11.22,22.99h-17.68l-6.73,12.42c-.35.65.79,1.45,1.54,1.45h30.51l7.09,14.29c4.99.4,12.73.4,17.72,0l-34.33-67.45ZM283.78,141.45c-5.09-.4-12.78-.4-17.87,0l-33.67,67.45c4.99.4,12.77.4,17.66,0l6.74-14.29h0l6.61-13.87h-.01l.54-1.11h0s0,0,0,0l10.66-21.87,11.22,22.99h-17.68l-6.73,12.42c-.35.65.79,1.45,1.54,1.45h30.51l7.09,14.29c4.99.4,12.73.4,17.72,0l-34.33-67.45Z"/>
  <g>
    <path class="cls-3" d="M37.73,313.21h-15.53l-2.66,6.89c-2.71.22-6.95.22-9.72,0l15.64-37.54c2.82-.22,6.35-.22,9.18,0l15.64,37.54c-2.77.22-7.11.22-9.88,0l-2.66-6.89ZM29.97,293.03l-4.83,12.57h9.67l-4.83-12.57Z"/>
    <path class="cls-3" d="M65.27,296.39v23.71c-2.99.33-6.46.33-9.5,0v-37.54c3.31-.22,6.95-.22,10.21,0l16.51,24.26v-24.26c3.37-.22,6.35-.22,9.5,0v37.54c-3.53.22-6.9.22-10.43,0l-16.29-23.71Z"/>
    <path class="cls-3" d="M110.57,290.33h-12.87c-.27-2.21-.27-5.51,0-7.77h35.25c.27,2.26.27,5.57,0,7.77h-12.87v29.77c-2.66.22-6.73.22-9.5,0v-29.77Z"/>
    <path class="cls-3" d="M138.65,282.55c2.77-.22,6.84-.22,9.5,0v37.54c-2.66.22-6.73.22-9.5,0v-37.54Z"/>
    <path class="cls-3" d="M155.97,292.26c0-7.88,7.33-10.42,18.36-10.42,4.07,0,7.87.28,12.87,1.05.27,2.21.27,5.46,0,7.66-4.02-.5-7.71-.72-11.19-.72-6.03,0-10.54.22-10.54,4.47v13.78c0,4.3,4.51,4.58,10.54,4.58,3.26,0,7.71-.5,11.3-1.1.49,2.37.71,5.07.71,7.61-5.16,1.1-10.15,1.6-13.68,1.6-11.02,0-18.36-2.54-18.36-10.42v-18.08Z"/>
    <path class="cls-3" d="M230.59,310.06c0,7.99-7.17,10.69-18.03,10.69s-18.03-2.7-18.03-10.69v-17.59c0-7.94,7.17-10.64,18.03-10.64s18.03,2.7,18.03,10.64v17.59ZM221.09,294.46c0-4.19-3.75-4.63-8.53-4.63s-8.53.44-8.53,4.63v13.56c0,4.13,3.75,4.58,8.53,4.58s8.53-.44,8.53-4.58v-13.56Z"/>
    <path class="cls-3" d="M272.41,297.99c0,4.58-2.55,7.17-6.95,8.49,3.09,4.36,5.54,9.26,7.6,13.62-2.71.22-7.38.22-10.1,0-1.9-4.02-4.24-8.49-7.06-12.62h-8.04v12.62c-2.82.22-6.63.22-9.5,0v-37.54h18.41c9.61,0,15.64,2.54,15.64,9.59v5.84ZM262.91,294.41c0-3.42-2.88-3.8-6.46-3.8h-8.58v9.04h8.58c3.53,0,6.46-.44,6.46-3.75v-1.49Z"/>
    <path class="cls-3" d="M314.23,297.99c0,4.58-2.55,7.17-6.95,8.49,3.1,4.36,5.54,9.26,7.6,13.62-2.71.22-7.39.22-10.1,0-1.9-4.02-4.24-8.49-7.06-12.62h-8.04v12.62c-2.82.22-6.63.22-9.5,0v-37.54h18.41c9.61,0,15.64,2.54,15.64,9.59v5.84ZM304.73,294.41c0-3.42-2.88-3.8-6.46-3.8h-8.58v9.04h8.58c3.53,0,6.46-.44,6.46-3.75v-1.49Z"/>
    <path class="cls-3" d="M348.29,282.55c2.28-.22,7.71-.22,9.45,0v27.46c0,7.99-7.17,10.75-17.92,10.75s-17.98-2.76-17.98-10.75v-27.46c2.5-.22,7.22-.22,9.5,0v25.47c0,4.08,3.64,4.58,8.47,4.58s8.47-.5,8.47-4.58v-25.47Z"/>
    <path class="cls-3" d="M399.99,298.32c0,7.22-6.03,9.7-15.64,9.7h-8.91v12.07c-2.66.22-6.62.28-9.5,0v-37.54h18.41c9.61,0,15.64,2.54,15.64,9.87v5.9ZM390.49,294.52c0-3.42-2.77-3.91-6.3-3.91h-8.74v9.59h8.74c3.47,0,6.3-.55,6.3-3.86v-1.82Z"/>
    <path class="cls-3" d="M406.57,292.26c0-7.88,7.33-10.42,18.36-10.42,4.07,0,7.88.28,12.87,1.05.27,2.21.27,5.46,0,7.66-4.02-.5-7.71-.72-11.19-.72-6.03,0-10.54.22-10.54,4.47v13.78c0,4.3,4.51,4.58,10.54,4.58,3.26,0,7.71-.5,11.3-1.1.49,2.37.71,5.07.71,7.61-5.16,1.1-10.15,1.6-13.69,1.6-11.02,0-18.36-2.54-18.36-10.42v-18.08Z"/>
    <path class="cls-3" d="M445.73,282.55c2.77-.22,6.84-.22,9.5,0v37.54c-2.66.22-6.73.22-9.5,0v-37.54Z"/>
    <path class="cls-3" d="M499.11,310.06c0,7.99-7.17,10.69-18.03,10.69s-18.03-2.7-18.03-10.69v-17.59c0-7.94,7.17-10.64,18.03-10.64s18.03,2.7,18.03,10.64v17.59ZM489.61,294.46c0-4.19-3.75-4.63-8.53-4.63s-8.53.44-8.53,4.63v13.56c0,4.13,3.75,4.58,8.53,4.58s8.53-.44,8.53-4.58v-13.56ZM483.36,280.29c-2.88.28-4.67.28-7.71,0l5.76-9.1c3.1-.28,6.19-.28,9.23,0l-7.28,9.1Z"/>
    <path class="cls-3" d="M516.39,296.39v23.71c-2.99.33-6.46.33-9.5,0v-37.54c3.31-.22,6.95-.22,10.21,0l16.51,24.26v-24.26c3.37-.22,6.35-.22,9.5,0v37.54c-3.53.22-6.9.22-10.43,0l-16.29-23.71Z"/>
  </g>
  <g>
    <path class="cls-7" d="M209.25,231.75c5.44,0,10.14,0,10.14,3.19v1.2c0,2.08-1.88,2.77-6.41,4.46l-7.9,2.95c-5.91,2.21-8.43,4.81-8.43,8.7v9.69h30.59c.18-1.89.18-4.41,0-6.34h-22.81v-1.71c0-3.34,2.78-4.37,6-5.57l8.1-2.98c7.25-2.69,8.91-4.09,8.91-7.5v-4.42c0-5.46-5.27-8-16.58-8-4.59,0-8.53.14-13.74.8-.18,1.89-.19,4.28-.01,6.2,3.92-.33,9.17-.66,12.14-.66Z"/>
    <path class="cls-7" d="M273.19,235.26c0-6.73-5.23-9.86-16.47-9.86s-16.47,3.13-16.47,9.86v17.41c0,6.76,5.23,9.91,16.47,9.91s16.47-3.15,16.47-9.91v-17.41ZM265.14,250.66c0,5.21-5.07,5.21-8.42,5.21s-8.42,0-8.42-5.21v-13.43c0-5.26,5.07-5.26,8.42-5.26s8.42,0,8.42,5.26v13.43Z"/>
    <path class="cls-7" d="M298.28,231.75c5.44,0,10.14,0,10.14,3.19v1.2c0,2.08-1.88,2.77-6.41,4.46l-7.9,2.95c-5.91,2.21-8.43,4.81-8.43,8.7v9.69h30.59c.18-1.89.18-4.41,0-6.34h-22.81v-1.71c0-3.34,2.78-4.37,6-5.57l8.1-2.98c7.25-2.69,8.91-4.09,8.91-7.5v-4.42c0-5.46-5.27-8-16.58-8-4.59,0-8.53.14-13.74.8-.18,1.89-.19,4.28-.01,6.2,3.92-.33,9.17-.66,12.14-.66Z"/>
    <path class="cls-7" d="M359.16,250.66c0-7.37-4.04-10.51-13.52-10.51h-8.96v-7.52h20.34c.18-1.96.18-4.55,0-6.51h-28.07v20.1h16.26c1.93,0,5.95,0,5.95,4.55v.98c0,4.07-4.54,4.39-10.95,4.39-3.53,0-7.17-.21-11.12-.64-.17,1.92-.17,4.42.01,6.3,4.71.7,9.36.79,12.5.79,11.97,0,17.55-3.39,17.55-10.68v-1.26Z"/>
  </g>
  <g>
    <path class="cls-8" d="M7.49,246.02v-4.28h167.93c.08,1.2.17,2.62.27,4.28H7.49Z"/>
    <path class="cls-2" d="M382.42,241.71c0,1.53,0,2.83,0,4.32,54.74,0,109.36,0,164.23,0,1.23-.92,2.25-2.19,1.27-4.32-54.95,0-109.97,0-165.5,0Z"/>
  </g>
  <g>
    <path class="cls-4" d="M9.22,361.93c.38.17.76.32,1.16.46.4.14.81.24,1.24.32.43.08.88.12,1.35.12.34,0,.62-.02.86-.07.23-.04.43-.1.59-.18.16-.07.28-.17.37-.27.09-.11.15-.22.19-.34.04-.12.05-.25.05-.38,0-.15-.02-.28-.05-.4-.04-.12-.1-.23-.18-.32s-.2-.18-.36-.26c-.16-.07-.35-.15-.59-.21-.24-.07-.53-.13-.87-.19-.24-.04-.49-.09-.75-.14-.26-.05-.52-.11-.79-.19-.26-.07-.51-.17-.75-.28-.24-.11-.47-.26-.68-.43s-.39-.38-.54-.61c-.15-.24-.27-.52-.36-.84-.09-.33-.13-.7-.13-1.14,0-.63.11-1.17.32-1.65.21-.47.53-.87.94-1.19.41-.32.91-.56,1.5-.72.59-.16,1.25-.24,1.98-.24.48,0,.94.03,1.38.1s.84.16,1.23.27c.38.11.74.25,1.08.41l-.44,2.24c-.3-.15-.62-.28-.96-.38-.34-.11-.7-.19-1.08-.25-.38-.06-.79-.09-1.23-.09-.38,0-.69.03-.94.09-.25.06-.45.15-.6.26s-.25.24-.31.38c-.06.15-.09.31-.09.48,0,.13,0,.24.03.34.02.1.06.2.13.29.07.09.17.17.29.25.13.07.29.14.5.2.21.06.47.12.79.18.2.03.41.07.64.1s.46.08.7.14c.24.06.48.12.72.2.24.08.47.18.69.29.22.11.43.26.62.43.19.18.36.38.5.62s.25.51.33.82c.08.31.12.67.12,1.07,0,.61-.1,1.16-.31,1.65-.21.48-.51.89-.91,1.23-.4.34-.91.59-1.51.77-.6.18-1.3.26-2.08.26-.59,0-1.13-.04-1.63-.13-.5-.09-.97-.2-1.39-.35-.42-.15-.81-.31-1.15-.5l.41-2.24Z"/>
    <path class="cls-4" d="M19.28,352.99h8.28v2.22h-5.59v2.44h5.17v2.22h-5.17v2.85h5.78v2.22h-8.47v-11.95Z"/>
    <path class="cls-4" d="M37.45,355.73c-.37-.19-.77-.35-1.2-.47-.44-.12-.91-.18-1.42-.18s-.96.09-1.34.26c-.38.18-.7.43-.95.76s-.44.73-.56,1.2c-.12.47-.18.98-.18,1.55v.51c0,.51.06.98.17,1.41s.29.79.53,1.1c.24.31.55.54.93.71s.83.25,1.35.25,1.04-.06,1.52-.18c.48-.12.92-.29,1.34-.52l.39,2.17c-.29.17-.62.32-.99.44s-.77.22-1.22.29c-.45.07-.94.1-1.49.1-.88,0-1.66-.13-2.34-.38-.68-.26-1.25-.63-1.71-1.12s-.81-1.09-1.05-1.79c-.24-.71-.36-1.51-.36-2.41v-.65c0-.75.08-1.44.24-2.07.16-.62.4-1.18.72-1.66.32-.48.71-.9,1.17-1.24s.99-.6,1.58-.78c.59-.18,1.25-.26,1.97-.26.49,0,.94.03,1.33.1s.75.16,1.07.27c.32.11.62.25.89.39l-.39,2.19Z"/>
    <path class="cls-4" d="M39.54,352.99h4.79c.41,0,.8.03,1.18.08.38.05.73.14,1.07.26.33.12.64.28.91.48s.51.44.71.73c.2.28.35.62.46,1,.11.38.16.82.16,1.32,0,.41-.05.79-.15,1.13-.1.34-.24.65-.42.91s-.39.5-.63.71-.5.38-.79.53l2.39,4.81h-3.06l-1.87-4.23h-1.96v4.23h-2.78v-11.95ZM45.83,357.75c.09-.22.14-.5.14-.84s-.05-.61-.14-.83-.22-.4-.38-.53c-.16-.13-.35-.22-.57-.28-.22-.06-.46-.09-.72-.09h-1.82v3.41h1.82c.26,0,.5-.03.72-.08.22-.05.41-.14.57-.26.16-.12.29-.3.38-.51Z"/>
    <path class="cls-4" d="M50.48,352.99h8.28v2.22h-5.59v2.44h5.17v2.22h-5.17v2.85h5.78v2.22h-8.47v-11.95Z"/>
    <path class="cls-4" d="M63.75,355.29h-3.69v-2.3h10.05v2.3h-3.68v9.64h-2.69v-9.64Z"/>
    <path class="cls-4" d="M73.57,352.99h3.08l4.34,11.95h-3l-.75-2.39h-4.3l-.75,2.39h-2.94l4.34-11.95ZM76.54,360.34l-1.46-4.68-1.48,4.68h2.94Z"/>
    <path class="cls-4" d="M82.18,352.99h4.79c.41,0,.8.03,1.18.08.38.05.73.14,1.07.26.33.12.64.28.91.48.27.2.51.44.71.73.2.28.35.62.46,1,.1.38.16.82.16,1.32,0,.41-.05.79-.15,1.13-.1.34-.24.65-.42.91-.18.27-.39.5-.63.71-.24.21-.5.38-.79.53l2.39,4.81h-3.06l-1.87-4.23h-1.96v4.23h-2.78v-11.95ZM88.47,357.75c.09-.22.14-.5.14-.84s-.05-.61-.14-.83c-.09-.22-.22-.4-.38-.53-.16-.13-.35-.22-.57-.28-.22-.06-.46-.09-.72-.09h-1.82v3.41h1.82c.26,0,.5-.03.72-.08.22-.05.41-.14.57-.26.16-.12.29-.3.38-.51Z"/>
    <path class="cls-4" d="M94.61,349.73h3.58l-3.05,2.1h-2.72l2.18-2.1ZM93.11,352.99h2.83v11.95h-2.83v-11.95Z"/>
    <path class="cls-4" d="M101.47,352.99h3.08l4.34,11.95h-3l-.75-2.39h-4.3l-.75,2.39h-2.94l4.34-11.95ZM104.44,360.34l-1.46-4.68-1.48,4.68h2.94Z"/>
    <path class="cls-4" d="M112.83,352.99h8.28v2.22h-5.59v2.44h5.17v2.22h-5.17v2.85h5.78v2.22h-8.47v-11.95Z"/>
    <path class="cls-4" d="M130.17,360.17c0,.74-.07,1.39-.21,1.94-.14.55-.34,1.02-.61,1.41-.26.39-.58.7-.94.94-.37.24-.78.41-1.23.52-.46.11-.95.16-1.47.16-.69,0-1.32-.08-1.88-.23-.57-.15-1.08-.36-1.54-.61l.39-2.17c.39.22.8.39,1.23.51.43.12.88.19,1.33.19.35,0,.65-.04.91-.14.26-.09.48-.24.66-.45.18-.21.31-.49.4-.84.09-.35.13-.77.13-1.27v-7.15h2.83v7.19Z"/>
    <path class="cls-4" d="M132.07,352.99h8.28v2.22h-5.59v2.44h5.17v2.22h-5.17v2.85h5.78v2.22h-8.47v-11.95Z"/>
    <path class="cls-4" d="M150.25,355.73c-.37-.19-.77-.35-1.2-.47-.43-.12-.91-.18-1.42-.18s-.96.09-1.34.26c-.38.18-.7.43-.95.76s-.44.73-.56,1.2-.18.98-.18,1.55v.51c0,.51.06.98.17,1.41s.29.79.53,1.1c.24.31.55.54.93.71s.83.25,1.35.25,1.04-.06,1.52-.18c.48-.12.92-.29,1.34-.52l.39,2.17c-.29.17-.62.32-.99.44s-.77.22-1.22.29-.94.1-1.48.1c-.88,0-1.66-.13-2.34-.38-.68-.26-1.25-.63-1.71-1.12s-.81-1.09-1.05-1.79c-.24-.71-.36-1.51-.36-2.41v-.65c0-.75.08-1.44.24-2.07.16-.62.4-1.18.72-1.66.32-.48.71-.9,1.17-1.24s.99-.6,1.58-.78c.59-.18,1.25-.26,1.97-.26.49,0,.93.03,1.33.1.39.07.75.16,1.07.27.32.11.62.25.89.39l-.39,2.19Z"/>
    <path class="cls-4" d="M162.38,360.29c0,.86-.12,1.61-.34,2.24-.23.63-.57,1.14-1.01,1.54-.44.4-.98.69-1.61.89-.63.19-1.35.29-2.16.29s-1.49-.09-2.11-.28c-.62-.19-1.14-.48-1.57-.88s-.76-.91-.98-1.54c-.22-.63-.34-1.38-.34-2.25v-7.31h2.83v7.25c0,.6.08,1.1.23,1.5.15.4.39.7.72.9s.76.3,1.28.3.95-.1,1.28-.3.57-.5.72-.9c.15-.4.23-.9.23-1.5v-7.25h2.83v7.31Z"/>
    <path class="cls-4" d="M167.41,355.29h-3.69v-2.3h10.05v2.3h-3.68v9.64h-2.69v-9.64Z"/>
    <path class="cls-4" d="M175.2,352.99h2.83v11.95h-2.83v-11.95Z"/>
    <path class="cls-4" d="M186.4,364.93h-3.08l-4.1-11.95h3.03l2.66,8.76,2.64-8.76h2.97l-4.12,11.95Z"/>
    <path class="cls-4" d="M194,352.99h3.08l4.34,11.95h-3l-.75-2.39h-4.3l-.75,2.39h-2.94l4.34-11.95ZM196.97,360.34l-1.46-4.68-1.48,4.68h2.94Z"/>
    <path class="cls-4" d="M205.36,352.99h4.6c.9,0,1.71.12,2.42.35.71.23,1.32.58,1.81,1.05s.88,1.06,1.13,1.77c.26.71.38,1.54.38,2.48v.65c0,.73-.09,1.39-.26,1.98s-.43,1.12-.76,1.57-.74.84-1.21,1.15c-.47.31-1,.55-1.59.71-.59.16-1.23.24-1.92.24h-4.6v-11.95ZM209.82,362.63c.96,0,1.7-.28,2.21-.85.51-.57.76-1.42.76-2.56v-.51c0-1.15-.25-2.01-.76-2.57-.51-.56-1.24-.84-2.21-.84h-1.63v7.34h1.63Z"/>
    <path class="cls-4" d="M217.38,352.99h8.28v2.22h-5.59v2.44h5.17v2.22h-5.17v2.85h5.78v2.22h-8.47v-11.95Z"/>
    <path class="cls-4" d="M227.51,352.99h2.69v9.64h5.28v2.3h-7.96v-11.95Z"/>
    <path class="cls-4" d="M239.63,361.93c.38.17.77.32,1.16.46.4.14.81.24,1.24.32.43.08.88.12,1.35.12.33,0,.62-.02.86-.07.24-.04.43-.1.59-.18.16-.07.28-.17.37-.27.09-.11.15-.22.19-.34.04-.12.06-.25.06-.38,0-.15-.02-.28-.06-.4-.04-.12-.1-.23-.18-.32s-.21-.18-.36-.26c-.16-.07-.35-.15-.59-.21-.24-.07-.53-.13-.87-.19-.24-.04-.49-.09-.75-.14-.26-.05-.52-.11-.79-.19-.26-.07-.51-.17-.75-.28-.24-.11-.47-.26-.68-.43s-.39-.38-.54-.61c-.15-.24-.27-.52-.36-.84-.09-.33-.13-.7-.13-1.14,0-.63.11-1.17.32-1.65.21-.47.53-.87.94-1.19.41-.32.91-.56,1.5-.72.59-.16,1.25-.24,1.98-.24.48,0,.94.03,1.38.1.43.07.84.16,1.22.27.38.11.74.25,1.08.41l-.44,2.24c-.3-.15-.63-.28-.97-.38-.34-.11-.7-.19-1.08-.25s-.79-.09-1.22-.09c-.38,0-.69.03-.94.09-.25.06-.45.15-.6.26-.15.11-.25.24-.31.38-.06.15-.09.31-.09.48,0,.13.01.24.03.34s.07.2.13.29c.07.09.16.17.29.25s.29.14.5.2c.21.06.47.12.79.18.2.03.41.07.64.1.22.03.46.08.7.14.24.06.48.12.72.2.24.08.47.18.69.29.22.11.43.26.62.43.19.18.36.38.5.62.14.23.25.51.33.82.08.31.12.67.12,1.07,0,.61-.1,1.16-.31,1.65-.2.48-.51.89-.91,1.23-.4.34-.91.59-1.51.77-.6.18-1.3.26-2.08.26-.59,0-1.13-.04-1.63-.13-.5-.09-.97-.2-1.39-.35-.42-.15-.81-.31-1.16-.5l.41-2.24Z"/>
    <path class="cls-4" d="M249.68,352.99h2.83v11.95h-2.83v-11.95Z"/>
    <path class="cls-4" d="M254.44,361.93c.38.17.76.32,1.16.46.4.14.81.24,1.24.32.43.08.88.12,1.35.12.33,0,.62-.02.86-.07.24-.04.43-.1.59-.18s.28-.17.37-.27.15-.22.19-.34c.04-.12.06-.25.06-.38,0-.15-.02-.28-.06-.4-.04-.12-.1-.23-.18-.32s-.2-.18-.36-.26c-.16-.07-.35-.15-.59-.21-.24-.07-.53-.13-.87-.19-.24-.04-.49-.09-.75-.14-.26-.05-.52-.11-.79-.19-.26-.07-.51-.17-.75-.28-.24-.11-.47-.26-.68-.43-.21-.17-.39-.38-.54-.61-.15-.24-.27-.52-.36-.84-.09-.33-.13-.7-.13-1.14,0-.63.11-1.17.32-1.65.21-.47.53-.87.94-1.19.41-.32.91-.56,1.5-.72.59-.16,1.25-.24,1.98-.24.48,0,.94.03,1.38.1.43.07.84.16,1.22.27.38.11.74.25,1.08.41l-.44,2.24c-.3-.15-.63-.28-.97-.38-.34-.11-.7-.19-1.08-.25-.38-.06-.79-.09-1.23-.09-.38,0-.69.03-.94.09s-.45.15-.6.26c-.15.11-.25.24-.31.38-.06.15-.09.31-.09.48,0,.13.01.24.03.34.02.1.06.2.13.29.07.09.17.17.29.25.12.07.29.14.5.2.21.06.47.12.79.18.2.03.41.07.64.1.23.03.46.08.7.14.24.06.48.12.72.2.24.08.47.18.69.29.22.11.43.26.62.43.19.18.36.38.5.62.14.23.25.51.33.82.08.31.12.67.12,1.07,0,.61-.1,1.16-.31,1.65s-.51.89-.91,1.23c-.4.34-.91.59-1.51.77-.6.18-1.3.26-2.08.26-.59,0-1.13-.04-1.63-.13-.5-.09-.97-.2-1.39-.35-.42-.15-.81-.31-1.16-.5l.41-2.24Z"/>
    <path class="cls-4" d="M267.48,355.29h-3.69v-2.3h10.05v2.3h-3.68v9.64h-2.69v-9.64Z"/>
    <path class="cls-4" d="M275.27,352.99h8.28v2.22h-5.59v2.44h5.17v2.22h-5.17v2.85h5.78v2.22h-8.47v-11.95Z"/>
    <path class="cls-4" d="M285.41,352.99h2.8l3.33,7.25,3.31-7.25h2.73v11.95h-2.56v-7.36l-2.44,5.14h-2.18l-2.43-5.14v7.36h-2.56v-11.95Z"/>
    <path class="cls-4" d="M303.11,352.99h3.08l4.34,11.95h-3l-.75-2.39h-4.3l-.76,2.39h-2.94l4.34-11.95ZM306.08,360.34l-1.46-4.68-1.48,4.68h2.94Z"/>
    <path class="cls-4" d="M314.47,352.99h2.45l5.15,7.82v-7.82h2.56v11.95h-2.45l-5.15-7.8v7.8h-2.56v-11.95Z"/>
    <path class="cls-4" d="M330.15,352.99h3.08l4.34,11.95h-3l-.75-2.39h-4.3l-.76,2.39h-2.94l4.34-11.95ZM333.12,360.34l-1.46-4.68-1.48,4.68h2.94Z"/>
    <path class="cls-4" d="M346.64,355.73c-.37-.19-.77-.35-1.2-.47-.44-.12-.91-.18-1.42-.18s-.96.09-1.34.26c-.38.18-.7.43-.95.76-.25.33-.44.73-.56,1.2-.12.47-.18.98-.18,1.55v.51c0,.51.06.98.17,1.41s.29.79.53,1.1c.24.31.55.54.93.71s.83.25,1.35.25,1.04-.06,1.52-.18c.48-.12.92-.29,1.34-.52l.39,2.17c-.29.17-.62.32-.99.44-.37.12-.77.22-1.22.29s-.94.1-1.48.1c-.88,0-1.66-.13-2.34-.38-.68-.26-1.25-.63-1.71-1.12s-.81-1.09-1.05-1.79c-.24-.71-.36-1.51-.36-2.41v-.65c0-.75.08-1.44.24-2.07.16-.62.4-1.18.72-1.66.32-.48.71-.9,1.17-1.24s.99-.6,1.58-.78c.59-.18,1.25-.26,1.97-.26.49,0,.94.03,1.33.1s.75.16,1.07.27c.32.11.62.25.89.39l-.39,2.19Z"/>
    <path class="cls-4" d="M348.73,352.99h2.83v11.95h-2.83v-11.95Z"/>
    <path class="cls-4" d="M358.61,365.24c-.83,0-1.57-.12-2.24-.36-.67-.24-1.23-.6-1.71-1.09s-.83-1.1-1.08-1.84c-.25-.74-.37-1.61-.37-2.61v-.75c0-.82.09-1.55.26-2.19.17-.64.42-1.19.75-1.66s.72-.85,1.17-1.16c.45-.31.96-.53,1.52-.68.57-.15,1.17-.22,1.81-.22.84,0,1.59.12,2.25.36s1.22.6,1.7,1.09c.47.49.83,1.1,1.08,1.84.25.74.37,1.61.37,2.61v.75c0,.82-.09,1.55-.26,2.18-.17.64-.42,1.19-.75,1.66s-.72.85-1.17,1.16c-.45.31-.96.54-1.52.68-.56.15-1.16.22-1.81.22ZM357.13,362.44c.21.17.44.3.7.38.26.08.54.12.85.12s.59-.04.85-.12c.26-.08.49-.21.7-.38.2-.17.38-.4.53-.67.15-.28.26-.62.34-1.02s.12-.87.12-1.4v-.79c0-.53-.04-1-.12-1.4s-.19-.74-.34-1.02-.32-.5-.53-.67c-.21-.17-.44-.29-.7-.38-.26-.08-.54-.12-.85-.12s-.59.04-.85.12c-.26.08-.49.21-.7.38-.21.17-.38.4-.53.67-.15.28-.26.62-.34,1.02-.08.4-.12.87-.12,1.4v.79c0,.54.04,1,.12,1.4.08.4.19.74.34,1.02.15.28.32.5.53.67Z"/>
    <path class="cls-4" d="M365.79,352.99h2.45l5.15,7.82v-7.82h2.56v11.95h-2.45l-5.15-7.8v7.8h-2.56v-11.95Z"/>
    <path class="cls-4" d="M381.47,352.99h3.08l4.34,11.95h-3l-.75-2.39h-4.3l-.75,2.39h-2.94l4.34-11.95ZM384.44,360.34l-1.46-4.68-1.48,4.68h2.94Z"/>
    <path class="cls-4" d="M390.08,352.99h2.69v9.64h5.28v2.3h-7.97v-11.95Z"/>
    <path class="cls-4" d="M405.79,352.99h3.08l4.34,11.95h-3l-.75-2.39h-4.3l-.75,2.39h-2.94l4.34-11.95ZM408.76,360.34l-1.46-4.68-1.48,4.68h2.94Z"/>
    <path class="cls-4" d="M414.4,352.99h2.45l5.15,7.82v-7.82h2.56v11.95h-2.45l-5.15-7.8v7.8h-2.56v-11.95Z"/>
    <path class="cls-4" d="M429.67,355.29h-3.69v-2.3h10.05v2.3h-3.68v9.64h-2.69v-9.64Z"/>
    <path class="cls-4" d="M437.46,352.99h2.83v11.95h-2.83v-11.95Z"/>
    <path class="cls-4" d="M450.53,355.73c-.37-.19-.77-.35-1.2-.47-.44-.12-.91-.18-1.42-.18s-.96.09-1.34.26c-.38.18-.7.43-.95.76-.25.33-.44.73-.56,1.2-.12.47-.18.98-.18,1.55v.51c0,.51.06.98.17,1.41s.29.79.53,1.1c.24.31.55.54.93.71s.83.25,1.35.25,1.04-.06,1.52-.18c.48-.12.92-.29,1.34-.52l.39,2.17c-.29.17-.62.32-.99.44-.37.12-.77.22-1.22.29s-.94.1-1.48.1c-.88,0-1.66-.13-2.34-.38-.68-.26-1.25-.63-1.71-1.12s-.81-1.09-1.05-1.79c-.24-.71-.36-1.51-.36-2.41v-.65c0-.75.08-1.44.24-2.07.16-.62.4-1.18.72-1.66.32-.48.71-.9,1.17-1.24s.99-.6,1.58-.78c.59-.18,1.25-.26,1.97-.26.49,0,.94.03,1.33.1s.75.16,1.07.27c.32.11.62.25.89.39l-.39,2.19Z"/>
    <path class="cls-4" d="M457.48,365.24c-.83,0-1.57-.12-2.24-.36-.67-.24-1.23-.6-1.71-1.09s-.83-1.1-1.08-1.84c-.25-.74-.37-1.61-.37-2.61v-.75c0-.82.09-1.55.26-2.19.17-.64.42-1.19.75-1.66s.72-.85,1.17-1.16c.45-.31.96-.53,1.52-.68.57-.15,1.17-.22,1.81-.22.84,0,1.59.12,2.25.36s1.22.6,1.7,1.09c.47.49.83,1.1,1.08,1.84.25.74.37,1.61.37,2.61v.75c0,.82-.09,1.55-.26,2.18-.17.64-.42,1.19-.75,1.66s-.72.85-1.17,1.16c-.45.31-.96.54-1.52.68-.56.15-1.16.22-1.81.22ZM455.99,362.44c.21.17.44.3.7.38.26.08.54.12.85.12s.59-.04.85-.12c.26-.08.49-.21.7-.38.2-.17.38-.4.53-.67.15-.28.26-.62.34-1.02s.12-.87.12-1.4v-.79c0-.53-.04-1-.12-1.4s-.19-.74-.34-1.02-.32-.5-.53-.67c-.21-.17-.44-.29-.7-.38-.26-.08-.54-.12-.85-.12s-.59.04-.85.12c-.26.08-.49.21-.7.38-.21.17-.38.4-.53.67-.15.28-.26.62-.34,1.02-.08.4-.12.87-.12,1.4v.79c0,.54.04,1,.12,1.4.08.4.19.74.34,1.02.15.28.32.5.53.67Z"/>
    <path class="cls-4" d="M464.66,352.99h4.79c.41,0,.8.03,1.18.08.38.05.73.14,1.07.26.33.12.64.28.91.48s.51.44.71.73c.2.28.35.62.46,1,.11.38.16.82.16,1.32,0,.41-.05.79-.15,1.13-.1.34-.24.65-.42.91s-.39.5-.63.71c-.24.21-.5.38-.79.53l2.39,4.81h-3.06l-1.87-4.23h-1.96v4.23h-2.78v-11.95ZM470.94,357.75c.1-.22.14-.5.14-.84s-.05-.61-.14-.83c-.09-.22-.22-.4-.38-.53s-.35-.22-.57-.28c-.22-.06-.46-.09-.72-.09h-1.82v3.41h1.82c.26,0,.5-.03.72-.08.22-.05.41-.14.57-.26s.29-.3.38-.51Z"/>
    <path class="cls-4" d="M475.59,352.99h4.79c.41,0,.8.03,1.18.08.38.05.73.14,1.07.26.34.12.64.28.91.48.27.2.51.44.71.73.2.28.35.62.46,1,.1.38.16.82.16,1.32,0,.41-.05.79-.15,1.13-.1.34-.24.65-.42.91-.18.27-.39.5-.63.71s-.5.38-.79.53l2.39,4.81h-3.06l-1.87-4.23h-1.96v4.23h-2.78v-11.95ZM481.88,357.75c.09-.22.14-.5.14-.84s-.05-.61-.14-.83-.22-.4-.38-.53-.35-.22-.57-.28c-.22-.06-.46-.09-.72-.09h-1.82v3.41h1.82c.26,0,.5-.03.72-.08.22-.05.41-.14.57-.26s.29-.3.38-.51Z"/>
    <path class="cls-4" d="M496.57,360.29c0,.86-.12,1.61-.35,2.24-.23.63-.57,1.14-1.01,1.54s-.98.69-1.61.89c-.63.19-1.35.29-2.16.29s-1.49-.09-2.11-.28c-.62-.19-1.14-.48-1.57-.88-.43-.4-.76-.91-.98-1.54-.23-.63-.34-1.38-.34-2.25v-7.31h2.83v7.25c0,.6.07,1.1.23,1.5.15.4.39.7.72.9s.76.3,1.28.3.95-.1,1.28-.3.57-.5.72-.9c.15-.4.23-.9.23-1.5v-7.25h2.83v7.31Z"/>
    <path class="cls-4" d="M498.45,352.99h4.67c.41,0,.8.03,1.18.09s.73.15,1.07.27c.34.12.64.29.9.49.27.2.5.45.7.74.2.3.35.64.46,1.03.1.39.16.84.16,1.36s-.05.92-.16,1.31c-.11.38-.27.72-.47,1.01-.21.29-.44.54-.71.74-.27.21-.58.37-.91.5s-.69.22-1.06.28-.75.08-1.14.08h-1.88v4.05h-2.78v-11.95ZM502.98,358.69c.25,0,.48-.03.7-.09.21-.06.4-.16.56-.29s.28-.31.37-.54.13-.5.13-.82-.04-.61-.13-.83-.21-.4-.37-.54c-.16-.14-.34-.24-.56-.3-.21-.06-.45-.09-.7-.09h-1.74v3.5h1.74Z"/>
    <path class="cls-4" d="M517.24,355.73c-.37-.19-.77-.35-1.2-.47-.44-.12-.91-.18-1.42-.18s-.96.09-1.34.26c-.38.18-.7.43-.95.76-.25.33-.44.73-.56,1.2-.12.47-.18.98-.18,1.55v.51c0,.51.06.98.17,1.41s.29.79.53,1.1c.24.31.55.54.93.71s.83.25,1.35.25,1.04-.06,1.52-.18c.48-.12.92-.29,1.34-.52l.39,2.17c-.29.17-.62.32-.99.44-.37.12-.77.22-1.22.29s-.94.1-1.48.1c-.88,0-1.66-.13-2.34-.38-.68-.26-1.25-.63-1.71-1.12s-.81-1.09-1.05-1.79c-.24-.71-.36-1.51-.36-2.41v-.65c0-.75.08-1.44.24-2.07.16-.62.4-1.18.72-1.66.32-.48.71-.9,1.17-1.24s.99-.6,1.58-.78c.59-.18,1.25-.26,1.97-.26.49,0,.94.03,1.33.1s.75.16,1.07.27c.32.11.62.25.89.39l-.39,2.19Z"/>
    <path class="cls-4" d="M519.33,352.99h2.83v11.95h-2.83v-11.95Z"/>
    <path class="cls-4" d="M529.21,365.24c-.83,0-1.57-.12-2.24-.36-.67-.24-1.23-.6-1.71-1.09s-.83-1.1-1.08-1.84c-.25-.74-.37-1.61-.37-2.61v-.75c0-.82.09-1.55.26-2.19.17-.64.42-1.19.75-1.66s.72-.85,1.17-1.16c.45-.31.96-.53,1.52-.68.57-.15,1.17-.22,1.81-.22.84,0,1.59.12,2.25.36s1.22.6,1.7,1.09c.47.49.83,1.1,1.08,1.84.25.74.37,1.61.37,2.61v.75c0,.82-.09,1.55-.26,2.18-.17.64-.42,1.19-.75,1.66s-.72.85-1.17,1.16c-.45.31-.96.54-1.52.68-.56.15-1.16.22-1.81.22ZM527.73,362.44c.21.17.44.3.7.38.26.08.54.12.85.12s.59-.04.85-.12c.26-.08.49-.21.7-.38.2-.17.38-.4.53-.67.15-.28.26-.62.34-1.02s.12-.87.12-1.4v-.79c0-.53-.04-1-.12-1.4s-.19-.74-.34-1.02-.32-.5-.53-.67c-.21-.17-.44-.29-.7-.38-.26-.08-.54-.12-.85-.12s-.59.04-.85.12c-.26.08-.49.21-.7.38-.21.17-.38.4-.53.67-.15.28-.26.62-.34,1.02-.08.4-.12.87-.12,1.4v.79c0,.54.04,1,.12,1.4.08.4.19.74.34,1.02.15.28.32.5.53.67ZM529.35,349.73h3.58l-3.05,2.1h-2.72l2.18-2.1Z"/>
    <path class="cls-4" d="M536.39,352.99h2.45l5.15,7.82v-7.82h2.56v11.95h-2.45l-5.15-7.8v7.8h-2.56v-11.95Z"/>
    <path class="cls-4" d="M146,373.47h4.67c.41,0,.8.03,1.18.09s.73.15,1.07.27c.34.12.64.29.9.49.27.2.5.45.7.74.2.3.35.64.46,1.03.1.39.16.84.16,1.36s-.05.92-.16,1.31c-.11.38-.27.72-.47,1.01-.2.29-.44.54-.71.74s-.58.37-.91.5-.69.22-1.06.28c-.37.06-.75.08-1.14.08h-1.88v4.05h-2.78v-11.95ZM150.53,379.17c.25,0,.48-.03.7-.09.21-.06.4-.16.56-.29s.28-.31.37-.54.13-.5.13-.82-.04-.61-.13-.83-.21-.4-.37-.54c-.16-.14-.34-.24-.56-.3-.21-.06-.45-.09-.7-.09h-1.74v3.5h1.74Z"/>
    <path class="cls-4" d="M156.53,373.47h2.69v9.64h5.28v2.3h-7.96v-11.95Z"/>
    <path class="cls-4" d="M169.49,373.47h3.08l4.34,11.95h-3l-.75-2.39h-4.3l-.75,2.39h-2.94l4.34-11.95ZM172.46,380.83l-1.46-4.68-1.48,4.68h2.94Z"/>
    <path class="cls-4" d="M179.72,375.77h-3.69v-2.3h10.05v2.3h-3.68v9.64h-2.69v-9.64Z"/>
    <path class="cls-4" d="M189.54,373.47h3.08l4.34,11.95h-3l-.75-2.39h-4.3l-.75,2.39h-2.94l4.34-11.95ZM192.5,380.83l-1.46-4.68-1.48,4.68h2.94Z"/>
    <path class="cls-4" d="M198.15,373.47h7.85v2.22h-5.17v2.61h4.86v2.22h-4.86v4.9h-2.69v-11.95Z"/>
    <path class="cls-4" d="M212.58,385.73c-.83,0-1.57-.12-2.24-.36-.67-.24-1.23-.6-1.7-1.09-.47-.49-.83-1.1-1.08-1.84-.25-.74-.37-1.61-.37-2.61v-.75c0-.82.09-1.55.26-2.19.17-.64.42-1.19.75-1.66.33-.47.72-.85,1.17-1.16.45-.31.96-.53,1.52-.68.57-.15,1.17-.22,1.81-.22.84,0,1.59.12,2.25.36.66.24,1.23.6,1.7,1.09.47.49.83,1.1,1.08,1.84.25.74.37,1.61.37,2.61v.75c0,.82-.09,1.55-.26,2.18-.17.64-.42,1.19-.75,1.66-.33.47-.72.85-1.17,1.16-.45.31-.96.54-1.52.68-.56.15-1.17.22-1.81.22ZM211.1,382.93c.2.17.44.3.7.38.26.08.54.12.85.12s.59-.04.85-.12c.26-.08.5-.21.7-.38.21-.17.38-.4.53-.67.15-.28.26-.62.34-1.02.08-.4.12-.87.12-1.4v-.79c0-.53-.04-1-.12-1.4-.08-.4-.19-.74-.34-1.02-.15-.28-.32-.5-.53-.67-.2-.17-.44-.29-.7-.38-.26-.08-.54-.12-.85-.12s-.59.04-.85.12c-.26.08-.5.21-.7.38-.21.17-.38.4-.53.67s-.26.62-.34,1.02c-.08.4-.12.87-.12,1.4v.79c0,.54.04,1,.12,1.4.08.4.19.74.34,1.02.15.28.32.5.53.67Z"/>
    <path class="cls-4" d="M219.76,373.47h4.79c.41,0,.8.03,1.18.08.38.05.73.14,1.07.26.34.12.64.28.91.48.27.2.51.44.71.73.2.28.35.62.46,1,.1.38.16.82.16,1.32,0,.41-.05.79-.15,1.13-.1.34-.24.65-.42.91s-.39.5-.63.71c-.24.21-.5.38-.79.53l2.39,4.81h-3.06l-1.87-4.23h-1.96v4.23h-2.78v-11.95ZM226.05,378.23c.09-.22.14-.5.14-.84s-.05-.61-.14-.83c-.09-.22-.22-.4-.38-.53s-.35-.22-.57-.28-.46-.09-.72-.09h-1.82v3.41h1.82c.26,0,.5-.03.72-.08.22-.05.41-.14.57-.26s.29-.3.38-.51Z"/>
    <path class="cls-4" d="M230.7,373.47h2.8l3.33,7.25,3.31-7.25h2.73v11.95h-2.56v-7.36l-2.44,5.14h-2.18l-2.44-5.14v7.36h-2.56v-11.95Z"/>
    <path class="cls-4" d="M248.4,373.47h3.08l4.34,11.95h-3l-.75-2.39h-4.3l-.75,2.39h-2.94l4.34-11.95ZM251.37,380.83l-1.46-4.68-1.48,4.68h2.94Z"/>
    <path class="cls-4" d="M259.76,373.47h4.6c.9,0,1.71.12,2.42.35.71.23,1.32.58,1.81,1.05s.88,1.06,1.13,1.77c.26.71.38,1.54.38,2.48v.65c0,.73-.09,1.39-.26,1.98-.17.59-.43,1.12-.76,1.57s-.74.84-1.21,1.15c-.47.31-1,.55-1.59.71-.59.16-1.23.24-1.92.24h-4.6v-11.95ZM264.22,383.11c.96,0,1.7-.28,2.21-.85.51-.57.76-1.42.76-2.56v-.51c0-1.15-.25-2.01-.76-2.57-.51-.56-1.24-.84-2.21-.84h-1.63v7.34h1.63Z"/>
    <path class="cls-4" d="M271.78,373.47h2.83v11.95h-2.83v-11.95Z"/>
    <path class="cls-4" d="M286.4,384.8c-.27.11-.58.22-.91.32-.34.1-.69.19-1.07.26-.38.07-.76.13-1.15.17-.39.04-.78.06-1.17.06-.94,0-1.78-.11-2.5-.33s-1.33-.57-1.82-1.03c-.49-.47-.87-1.06-1.12-1.77-.26-.72-.38-1.57-.38-2.56v-.65c0-.83.09-1.57.28-2.23.19-.65.46-1.22.81-1.7.35-.48.77-.87,1.27-1.18.49-.31,1.04-.53,1.66-.68.61-.15,1.28-.22,1.99-.22.59,0,1.12.04,1.59.13.47.08.9.2,1.27.34.38.14.71.3,1.01.47l-.39,2.17c-.44-.25-.93-.45-1.48-.6-.54-.15-1.12-.22-1.74-.22-1.15,0-2,.32-2.56.95-.55.63-.83,1.58-.83,2.84v.51c0,.57.06,1.07.17,1.51.11.44.3.8.55,1.1s.58.52.97.67c.4.15.88.23,1.45.23.22,0,.46-.01.71-.03.26-.02.5-.06.75-.12v-2.44h-2.11v-2.17h4.78v6.2Z"/>
    <path class="cls-4" d="M288.23,373.47h2.83v11.95h-2.83v-11.95Z"/>
    <path class="cls-4" d="M296.18,375.77h-3.69v-2.3h10.05v2.3h-3.68v9.64h-2.69v-9.64Z"/>
    <path class="cls-4" d="M305.99,373.47h3.08l4.34,11.95h-3l-.75-2.39h-4.3l-.75,2.39h-2.94l4.34-11.95ZM308.96,380.83l-1.46-4.68-1.48,4.68h2.94Z"/>
    <path class="cls-4" d="M314.6,373.47h2.69v9.64h5.28v2.3h-7.97v-11.95Z"/>
    <path class="cls-4" d="M326.76,373.47h2.45l5.15,7.82v-7.82h2.56v11.95h-2.45l-5.15-7.8v7.8h-2.56v-11.95Z"/>
    <path class="cls-4" d="M342.44,373.47h3.08l4.34,11.95h-3l-.75-2.39h-4.3l-.75,2.39h-2.94l4.34-11.95ZM345.41,380.83l-1.46-4.68-1.48,4.68h2.94Z"/>
    <path class="cls-4" d="M358.94,376.22c-.37-.19-.77-.35-1.2-.47-.43-.12-.91-.18-1.42-.18s-.96.09-1.34.26c-.38.18-.7.43-.95.76-.25.33-.44.73-.56,1.2-.12.47-.18.98-.18,1.55v.51c0,.51.06.98.17,1.41s.29.79.54,1.1c.24.31.55.54.93.71s.83.25,1.35.25,1.04-.06,1.52-.18c.48-.12.92-.29,1.34-.52l.39,2.17c-.29.17-.62.32-.99.44-.37.12-.77.22-1.22.29s-.94.1-1.48.1c-.88,0-1.66-.13-2.34-.38-.68-.26-1.25-.63-1.71-1.12-.46-.49-.81-1.09-1.05-1.79-.24-.71-.36-1.51-.36-2.41v-.65c0-.75.08-1.44.24-2.07.16-.62.4-1.18.72-1.66.32-.48.71-.9,1.17-1.24.46-.34.99-.6,1.58-.78.59-.18,1.25-.26,1.97-.26.49,0,.94.03,1.33.1s.75.16,1.07.27c.32.11.62.25.89.39l-.39,2.19Z"/>
    <path class="cls-4" d="M361.03,373.47h2.83v11.95h-2.83v-11.95Z"/>
    <path class="cls-4" d="M370.91,385.73c-.83,0-1.57-.12-2.24-.36-.66-.24-1.23-.6-1.7-1.09-.47-.49-.83-1.1-1.08-1.84-.25-.74-.37-1.61-.37-2.61v-.75c0-.82.09-1.55.26-2.19.17-.64.43-1.19.75-1.66.33-.47.72-.85,1.17-1.16.45-.31.96-.53,1.52-.68.56-.15,1.17-.22,1.81-.22.84,0,1.59.12,2.25.36s1.23.6,1.7,1.09.83,1.1,1.08,1.84c.25.74.37,1.61.37,2.61v.75c0,.82-.09,1.55-.26,2.18-.17.64-.42,1.19-.75,1.66s-.72.85-1.17,1.16c-.45.31-.96.54-1.52.68-.56.15-1.17.22-1.81.22ZM369.42,382.93c.21.17.44.3.7.38.26.08.54.12.85.12s.59-.04.85-.12c.26-.08.49-.21.7-.38s.38-.4.53-.67c.15-.28.26-.62.34-1.02.08-.4.12-.87.12-1.4v-.79c0-.53-.04-1-.12-1.4-.08-.4-.19-.74-.34-1.02-.15-.28-.32-.5-.53-.67-.21-.17-.44-.29-.7-.38-.26-.08-.54-.12-.85-.12s-.59.04-.85.12c-.26.08-.49.21-.7.38-.2.17-.38.4-.53.67s-.26.62-.34,1.02-.12.87-.12,1.4v.79c0,.54.04,1,.12,1.4s.19.74.34,1.02c.15.28.32.5.53.67Z"/>
    <path class="cls-4" d="M378.09,373.47h2.45l5.15,7.82v-7.82h2.56v11.95h-2.45l-5.15-7.8v7.8h-2.56v-11.95Z"/>
    <path class="cls-4" d="M393.77,373.47h3.08l4.34,11.95h-3l-.75-2.39h-4.3l-.76,2.39h-2.94l4.34-11.95ZM396.74,380.83l-1.46-4.68-1.48,4.68h2.94Z"/>
    <path class="cls-4" d="M402.38,373.47h2.69v9.64h5.28v2.3h-7.96v-11.95Z"/>
  </g>
  <path class="cls-5" d="M58.66,93.61v-4.28h424.77c.19,1.2.42,2.62.69,4.28H58.66Z"/>
  <g>
    <path class="cls-1" d="M185.19,17.62h-35.97c-.48-3.88-6.65-9.98-6.17-13.96h59.42c.48,3.97.48,9.79,0,13.67l-31.03,52.34c-3.91.48-13.65.48-17.57,0l31.31-52.05Z"/>
    <g>
      <path class="cls-1" d="M200.73,69.34v-33.46h26.23c.24,2.01.24,4.91,0,6.88h-17.76v6.39h17.28c.24,1.97.24,4.82,0,6.78h-17.28v6.54h17.76c.24,1.96.24,4.91,0,6.88h-26.23Z"/>
      <path class="cls-1" d="M233.78,69.34v-33.46h17.33c8.71,0,14.13,2.26,14.13,8.99v15.43c0,6.73-5.42,9.04-14.18,9.04h-17.28ZM256.77,46.59c0-3.05-2.52-3.54-5.66-3.54h-8.86v19.01h8.86c3.1,0,5.66-.49,5.66-3.39v-12.09Z"/>
      <path class="cls-1" d="M272.16,35.88c2.47-.2,6.1-.2,8.47,0v33.46c-2.37.2-6,.2-8.47,0v-33.46Z"/>
      <path class="cls-1" d="M287.6,44.52c0-7.03,6.53-9.29,16.36-9.29,3.63,0,7.02.25,11.47.93.24,1.96.24,4.86,0,6.83-3.58-.44-6.87-.64-9.97-.64-5.37,0-9.39.2-9.39,3.98v12.28c0,3.83,4.02,4.08,9.39,4.08,2.9,0,6.87-.44,10.07-.98.44,2.11.63,4.52.63,6.78-4.6.98-9.05,1.42-12.2,1.42-9.83,0-16.36-2.26-16.36-9.29v-16.12Z"/>
      <path class="cls-1" d="M322.5,35.88c2.47-.2,6.1-.2,8.47,0v33.46c-2.37.2-6,.2-8.47,0v-33.46Z"/>
      <path class="cls-1" d="M370.07,60.39c0,7.12-6.39,9.53-16.07,9.53s-16.07-2.41-16.07-9.53v-15.67c0-7.08,6.39-9.48,16.07-9.48s16.07,2.41,16.07,9.48v15.67ZM361.6,46.49c0-3.73-3.34-4.13-7.6-4.13s-7.6.39-7.6,4.13v12.09c0,3.69,3.34,4.08,7.6,4.08s7.6-.39,7.6-4.08v-12.09ZM356.04,33.86c-2.56.25-4.16.25-6.87,0l5.13-8.11c2.76-.25,5.52-.25,8.23,0l-6.49,8.11Z"/>
      <path class="cls-1" d="M385.46,48.21v21.13c-2.66.29-5.76.29-8.47,0v-33.46c2.95-.2,6.2-.2,9.1,0l14.71,21.62v-21.62c3-.2,5.66-.2,8.47,0v33.46c-3.15.2-6.15.2-9.29,0l-14.52-21.13Z"/>
    </g>
    <path class="cls-1" d="M229.29,23.55h-.31c-.93,2.74-4.38,3.82-8.99,3.82-5.45,0-9.61-1.84-9.61-6.74,0-6.43,4.38-7.78,10.45-7.78,3.1,0,5.31.18,8.1.4v-1.03c0-2.11-1.86-3.33-7.93-3.33-2.26,0-5.14.18-8.72.63-.22-1.84-.22-4.05,0-5.89,4.16-.67,7.57-.85,11.11-.85,8.68,0,13.2,1.89,13.2,7.91v16.36c-1.77.22-5.09.22-6.91,0l-.4-3.51ZM228.94,17.75c-1.82-.27-3.99-.45-5.4-.45-3.5,0-5.49.27-5.49,2.34,0,1.93,2.21,2.16,4.92,2.16s4.74-.54,5.98-1.98v-2.07Z"/>
  </g>
</svg>